# xmcd CD database file
#
# Track frame offsets:
#	150
#	18420
#	33195
#	43637
#	60032
#	81820
#	94152
#	107362
#	120990
#	132562
#	142972
#
# Disc length: 2114 seconds
#
# Revision: 0
# Processed by: cddbd v1.5.1PL2 Copyright (c) Steve Scherf et al.
# Submitted via: CDex 1.51
#
DISCID=7d08400b
DTITLE=Billy Walker - It's The Gospel Truth
DYEAR=1996
DGENRE=Country
TTITLE0=And Now Mama
TTITLE1=One Day At A Time
TTITLE2=I'll Give The Whole World Up For You
TTITLE3=Victory In Jesus
TTITLE4=In Gethsemane
TTITLE5=Soap And Water
TTITLE6=Love and Not The Nails
TTITLE7=He's Alive
TTITLE8=Someone Loves You
TTITLE9=Only One Prayer Away
TTITLE10=I Am The Way, The Truth And The Life
EXTD=YEAR: 1996
EXTT0=
EXTT1=
EXTT2=
EXTT3=
EXTT4=
EXTT5=
EXTT6=
EXTT7=
EXTT8=
EXTT9=
EXTT10=
PLAYORDER=
